<?xml version="1.0" standalone="no"?>
<!DOCTYPE svg PUBLIC "-//W3C//DTD SVG 20010904//EN"
 "http://www.w3.org/TR/2001/REC-SVG-20010904/DTD/svg10.dtd">
<svg version="1.0" xmlns="http://www.w3.org/2000/svg"
 width="270.000000pt" height="270.000000pt" viewBox="0 0 270.000000 270.000000"
 preserveAspectRatio="xMidYMid meet">
<metadata>
Created by potrace 1.14, written by Peter Selinger 2001-2017
</metadata>
<g transform="translate(0.000000,270.000000) scale(0.100000,-0.100000)"
fill="#000000" stroke="none">
<path d="M0 1350 l0 -1350 235 0 234 0 17 32 c24 46 128 153 199 203 55 39
144 79 154 69 2 -2 2 -5 0 -7 -2 -1 -29 -19 -59 -38 -91 -59 -156 -115 -210
-179 -27 -34 -50 -65 -50 -71 0 -5 58 -9 140 -9 99 0 139 3 138 11 -2 6 3 14
9 16 7 3 13 -2 13 -11 0 -14 45 -16 439 -16 321 0 440 3 443 11 3 9 9 9 25 0
13 -7 76 -11 163 -11 l142 0 -7 28 c-3 15 -14 45 -25 67 -34 74 -89 200 -99
227 -11 29 -3 36 16 17 9 -9 10 -7 6 9 -5 20 -10 21 -82 16 l-76 -5 97 39
c172 70 297 152 422 277 78 78 129 153 175 254 27 58 31 75 20 81 -7 5 -16 7
-20 4 -4 -2 -10 0 -14 5 -9 15 34 33 63 27 15 -3 3 5 -25 19 -51 23 -69 45
-38 45 9 0 12 6 9 15 -8 21 -26 19 -53 -6 -12 -12 -23 -19 -24 -18 -1 2 -10
18 -19 35 -13 23 -14 34 -6 42 9 9 17 6 34 -15 12 -16 26 -25 30 -21 4 4 2 14
-4 21 -7 8 -9 16 -6 20 13 12 -46 39 -72 33 -15 -4 -32 -2 -40 5 -16 13 -19
33 -4 24 6 -3 10 3 10 14 0 22 -30 30 -30 9 0 -7 -9 -2 -20 12 -27 35 -59 33
-101 -5 -50 -44 -98 -59 -180 -53 -83 6 -167 45 -206 96 l-26 35 78 71 78 72
-26 41 c-14 23 -31 44 -37 48 -19 12 -12 73 11 89 19 13 25 13 50 0 16 -8 35
-27 44 -42 26 -47 42 -63 58 -56 13 5 -9 39 -103 162 -66 87 -130 168 -142
182 -13 14 -20 21 -15 16 12 -17 8 -54 -10 -71 -12 -12 -25 -15 -47 -10 -17 4
-39 7 -48 7 -10 -1 -18 3 -18 9 0 5 5 9 10 9 13 0 -4 35 -30 63 -27 28 -24 82
5 97 13 7 31 10 40 7 22 -9 5 21 -39 67 -33 35 -56 46 -56 26 0 -5 4 -10 10
-10 13 0 42 -58 35 -70 -9 -15 -42 6 -50 30 -14 45 -48 67 -107 72 -41 3 -55
1 -51 -8 9 -23 -20 -28 -35 -6 -13 19 -24 22 -89 22 -70 0 -74 -1 -68 -20 4
-11 18 -33 31 -47 26 -28 27 -48 3 -48 -8 0 -18 15 -24 33 -5 17 -14 32 -20
32 -7 0 -18 11 -25 25 -8 15 -22 25 -36 25 -38 0 -175 -29 -221 -46 -36 -14
-45 -14 -59 -3 -14 11 -12 15 16 29 l32 17 -33 20 c-60 35 -190 145 -198 167
-24 64 -24 66 6 55 48 -17 162 -107 196 -155 18 -26 37 -52 42 -60 8 -11 25
-10 100 8 78 19 119 22 300 22 154 0 234 -5 303 -17 120 -22 127 -22 140 8 32
69 155 172 253 210 61 24 61 24 98 6 70 -37 200 -186 267 -309 27 -49 31 -52
59 -46 17 3 35 10 41 15 7 6 14 -16 23 -65 10 -63 10 -80 -3 -110 l-15 -36 32
-2 c18 -1 40 -2 50 -1 9 0 17 -4 17 -9 0 -4 -4 -8 -10 -8 -5 0 -10 -11 -10
-24 0 -29 -30 -68 -74 -95 -53 -33 -55 -70 -6 -169 22 -45 53 -120 69 -167 16
-48 31 -88 34 -91 3 -3 22 2 43 11 24 10 41 12 47 6 17 -17 -2 -42 -43 -58
-36 -14 -40 -20 -40 -50 0 -32 1 -33 40 -33 33 0 40 -4 40 -19 0 -21 -19 -31
-56 -31 -13 0 -24 -6 -24 -12 0 -7 -3 -23 -6 -34 -5 -18 0 -22 29 -28 35 -7
55 -30 36 -42 -6 -3 -25 -3 -44 0 -31 6 -34 5 -40 -26 -12 -54 -71 -175 -119
-241 -81 -115 -225 -238 -380 -328 -42 -24 -77 -51 -79 -59 -1 -8 16 -51 38
-95 36 -68 57 -135 81 -252 l4 -23 305 0 305 0 0 1350 0 1350 -1350 0 -1350 0
0 -1350z m1456 744 c13 -20 14 -28 5 -37 -10 -9 -15 -8 -26 7 -8 10 -16 23
-18 29 -2 6 -11 5 -26 -2 -21 -12 -21 -14 -7 -30 18 -19 21 -51 6 -51 -5 0
-17 11 -26 25 -16 25 -16 27 11 55 35 37 59 38 81 4z m-1144 -34 c31 -28 58
-61 60 -75 7 -34 2 -31 -21 13 -11 20 -29 43 -40 50 -24 14 -26 10 -10 -20 8
-15 8 -19 0 -14 -6 4 -20 24 -31 44 -10 21 -19 30 -20 20 0 -9 16 -47 35 -85
l35 -68 -30 34 c-16 19 -32 47 -35 63 -10 44 -28 34 -23 -14 3 -24 8 -52 12
-63 8 -20 7 -20 -8 -1 -26 32 -16 166 12 166 4 0 33 -22 64 -50z m217 -82 c1
-20 -3 -39 -8 -42 -5 -3 -9 13 -9 35 -1 23 -3 44 -6 47 -3 3 -6 -8 -6 -25 0
-17 -9 -41 -19 -54 l-20 -24 14 40 c22 62 19 72 -12 44 l-27 -24 23 39 c12 21
20 40 17 43 -2 2 -21 -11 -42 -29 -48 -42 -34 -16 20 37 l41 40 17 -45 c9 -25
17 -62 17 -82z m603 49 c10 -12 16 -28 13 -34 -2 -7 1 -13 9 -13 33 0 45 -83
15 -104 -18 -12 -24 -12 -50 1 -34 17 -55 48 -39 58 13 8 40 -13 40 -31 0 -17
5 -17 31 -4 18 10 18 12 1 43 -9 18 -27 45 -39 61 -19 23 -25 26 -42 16 -20
-10 -20 -12 -5 -36 11 -17 14 -28 7 -35 -13 -13 -41 28 -38 58 4 55 60 67 97
20z m367 6 c22 -43 2 -102 -35 -103 -18 0 -76 58 -69 70 11 18 31 11 43 -15
10 -22 14 -24 32 -13 18 11 18 14 5 35 -8 12 -15 27 -15 33 0 17 29 11 39 -7z
m-205 -67 c20 -29 36 -58 36 -65 0 -21 -27 -11 -41 17 -8 15 -22 36 -31 46
-19 21 -24 56 -9 56 6 0 26 -24 45 -54z m244 -58 c15 -15 16 -48 1 -48 -14 0
-38 30 -39 48 0 15 22 16 38 0z m-1283 -33 c-33 -10 -35 -13 -15 -14 14 -1 36
-5 50 -8 23 -7 21 -8 -15 -14 l-40 -6 33 -8 c17 -4 32 -12 32 -17 0 -17 -98
20 -119 45 -11 14 -11 17 0 21 8 2 21 7 29 9 8 3 31 5 50 5 l35 0 -40 -13z
m1137 -7 c28 -16 47 -39 48 -55 0 -23 -29 -14 -43 12 -11 22 -15 24 -31 12
-15 -11 -16 -17 -5 -40 15 -33 5 -47 -17 -25 -27 26 -27 75 -2 93 27 18 23 18
50 3z m-347 -18 c3 -5 1 -10 -4 -10 -6 0 -11 5 -11 10 0 6 2 10 4 10 3 0 8 -4
11 -10z m539 -15 c16 -24 14 -45 -3 -45 -13 0 -42 49 -36 60 10 16 22 12 39
-15z m-361 -12 c6 -15 20 -36 30 -45 9 -10 17 -28 17 -40 0 -20 -1 -21 -20 -3
-11 10 -20 26 -20 37 0 10 -5 18 -11 18 -14 0 -38 30 -39 48 0 23 30 12 43
-15z m-1012 -20 c10 -12 5 -11 -18 6 -18 12 -33 24 -33 27 0 9 37 -15 51 -33z
m1570 -11 c8 -15 22 -36 32 -46 9 -11 17 -28 17 -38 0 -31 -30 -20 -46 17 -8
19 -18 35 -23 35 -11 0 -33 49 -26 60 9 15 31 1 46 -28z m-751 -2 c0 -11 -4
-20 -10 -20 -5 0 -10 9 -10 20 0 11 5 20 10 20 6 0 10 -9 10 -20z m94 -5 c9
-14 14 -30 11 -35 -3 -6 0 -10 8 -10 34 0 46 -82 16 -104 -18 -12 -24 -12 -50
1 -30 15 -53 46 -42 57 12 12 24 6 35 -19 13 -29 16 -29 41 -11 18 14 17 16
-10 57 -15 23 -33 50 -39 60 -10 17 -12 17 -32 3 -21 -14 -21 -16 -5 -40 11
-17 13 -28 6 -35 -7 -7 -16 -1 -27 17 -17 25 -17 27 10 55 34 36 57 37 78 4z
m342 -2 c21 -28 17 -80 -6 -93 -38 -20 -99 21 -86 57 6 15 10 13 30 -12 21
-26 26 -28 40 -16 15 13 15 16 1 38 -24 36 -4 59 21 26z m182 -48 c10 -22 7
-35 -9 -35 -14 0 -41 48 -35 59 10 15 32 3 44 -24z m-302 -90 c-2 -6 2 -19 10
-30 8 -10 14 -28 14 -38 0 -19 -1 -20 -20 -2 -11 10 -20 26 -20 37 0 10 -4 18
-10 18 -12 0 -41 55 -33 63 8 9 63 -36 59 -48z m340 30 c17 -26 12 -47 -10
-39 -16 6 -37 49 -29 58 12 11 23 6 39 -19z m-836 5 c0 -5 -5 -10 -11 -10 -5
0 -7 5 -4 10 3 6 8 10 11 10 2 0 4 -4 4 -10z m668 -42 c14 -14 16 -48 3 -48
-6 0 -17 10 -25 22 -22 31 -4 52 22 26z m-538 -8 c0 -5 -2 -10 -4 -10 -3 0 -8
5 -11 10 -3 6 -1 10 4 10 6 0 11 -4 11 -10z m70 -20 c0 -5 -4 -10 -10 -10 -5
0 -10 5 -10 10 0 6 5 10 10 10 6 0 10 -4 10 -10z m732 -23 c10 -12 16 -26 14
-32 -1 -5 6 -17 17 -25 29 -24 32 -76 5 -95 -13 -8 -26 -15 -30 -15 -16 0 -7
30 11 39 18 10 18 12 2 45 -10 18 -27 46 -39 60 -17 23 -24 25 -40 17 -19 -10
-19 -12 -3 -43 9 -18 25 -46 35 -61 10 -15 16 -31 12 -34 -8 -8 -33 17 -38 37
-2 8 -11 21 -22 30 -25 21 -29 70 -8 93 20 23 60 15 84 -16z m-570 -2 c16 -34
1 -45 -23 -16 -23 28 -24 41 -4 41 9 0 21 -11 27 -25z m368 -46 c0 -18 -18
-17 -35 1 -11 12 -15 26 -10 37 6 16 8 16 26 -6 10 -13 19 -27 19 -32z m-410
12 c0 -19 -22 -23 -38 -7 -15 15 -14 16 11 16 15 0 27 -4 27 -9z m250 -11 c0
-5 3 -9 8 -9 20 3 30 -3 40 -26 9 -20 9 -25 -3 -25 -8 0 -19 9 -25 20 -12 23
-33 26 -48 7 -9 -10 -7 -19 4 -36 11 -15 13 -26 6 -33 -11 -11 -25 9 -36 54
-5 21 -1 30 16 42 26 18 38 20 38 6z m-172 -12 c7 -7 12 -21 12 -32 -1 -20 -1
-20 -20 3 -29 34 -22 59 8 29z m-154 -41 c15 -24 -2 -34 -19 -11 -8 10 -15 23
-15 27 0 13 22 3 34 -16z m550 11 c25 -11 44 -44 32 -55 -8 -9 -36 17 -36 34
0 11 -4 11 -22 2 -13 -6 -24 -13 -26 -14 -2 -2 4 -17 13 -34 13 -26 13 -31 1
-31 -29 0 -43 77 -17 97 20 16 24 16 55 1z m-849 -54 c161 -65 255 -110 255
-124 0 -22 -75 -91 -126 -116 -72 -35 -154 -32 -208 9 -65 50 -90 92 -94 163
-4 59 10 124 27 124 4 0 69 -25 146 -56z m705 7 c17 -33 12 -46 -10 -26 -21
19 -27 45 -10 45 5 0 14 -9 20 -19z m-454 -73 c27 -13 50 -32 52 -41 3 -13
-24 -2 -95 40 -54 31 -102 60 -108 65 -11 11 75 -26 151 -64z m104 21 c0 -16
-19 -9 -30 10 -17 33 -11 48 10 22 11 -13 20 -27 20 -32z m163 31 c21 -25 21
-30 2 -30 -12 0 -35 28 -35 44 0 12 16 5 33 -14z m401 -22 c21 -30 7 -47 -16
-19 -10 13 -18 27 -18 32 0 16 19 9 34 -13z m-276 -9 c17 -27 5 -40 -14 -15
-8 11 -14 23 -14 28 0 15 15 8 28 -13z m62 -24 c-7 -8 -20 -15 -29 -15 -12 1
-11 5 8 21 26 22 41 18 21 -6z m-100 0 c0 -8 -8 -15 -18 -15 -10 0 -19 7 -19
15 0 8 9 15 19 15 10 0 18 -7 18 -15z m260 -38 c0 -5 -9 -2 -20 8 -11 10 -20
25 -20 34 1 12 5 10 20 -8 11 -13 20 -28 20 -34z m-310 22 c15 -28 4 -38 -15
-13 -17 22 -19 34 -5 34 5 0 14 -9 20 -21z m-150 3 c0 -13 -39 -32 -45 -22 -3
5 3 13 12 19 22 13 33 14 33 3z m44 -41 c-6 -6 -24 19 -24 34 1 6 7 1 15 -9 8
-11 12 -22 9 -25z m476 29 c0 -9 -32 -30 -46 -30 -4 0 1 9 11 20 19 21 35 26
35 10z m-180 -25 c-7 -8 -17 -15 -22 -15 -6 0 -5 7 2 15 7 8 17 15 22 15 6 0
5 -7 -2 -15z m45 -15 c3 -5 1 -10 -4 -10 -6 0 -11 5 -11 10 0 6 2 10 4 10 3 0
8 -4 11 -10z m-61 -25 c47 -20 47 -48 -1 -105 l-37 -43 23 -18 c45 -37 121
-17 121 32 0 25 26 25 40 0 27 -51 -46 -108 -120 -96 -22 4 -50 15 -64 26 -16
13 -27 16 -31 9 -11 -18 -37 11 -31 34 4 14 -6 29 -34 54 -46 39 -50 63 -15
97 29 30 92 34 149 10z m-1344 -52 c47 -18 67 -29 54 -31 -23 -3 -130 34 -139
49 -9 14 4 11 85 -18z m2110 -25 c0 -15 -50 -8 -56 7 -4 8 -10 15 -16 15 -5 0
-6 -4 -3 -10 3 -5 1 -10 -4 -10 -6 0 -11 -9 -11 -20 0 -11 -4 -20 -10 -20 -5
0 -9 16 -7 35 2 31 5 35 30 35 15 0 27 4 27 10 0 5 11 0 25 -12 14 -12 25 -25
25 -30z m-2055 -108 c-11 -5 -38 -9 -60 -9 -22 0 -49 4 -60 9 -13 6 7 9 60 9
53 0 73 -3 60 -9z m1789 -5 c3 -9 0 -15 -9 -15 -8 0 -15 7 -15 15 0 8 4 15 9
15 5 0 11 -7 15 -15z m-809 -25 c-5 -8 -11 -8 -17 -2 -6 6 -7 16 -3 22 5 8 11
8 17 2 6 -6 7 -16 3 -22z m940 19 c10 -15 -1 -23 -20 -15 -9 3 -13 10 -10 16
8 13 22 13 30 -1z m-1922 -55 c-46 -20 -113 -34 -113 -23 0 5 3 9 8 9 4 1 30
7 57 15 64 18 89 17 48 -1z m1654 -10 c-3 -3 -12 -4 -19 -1 -8 3 -5 6 6 6 11
1 17 -2 13 -5z m-542 -24 c3 -5 1 -10 -4 -10 -6 0 -11 5 -11 10 0 6 2 10 4 10
3 0 8 -4 11 -10z m975 3 c0 -14 -19 -38 -25 -32 -8 8 5 39 16 39 5 0 9 -3 9
-7z m-74 -40 c-10 -10 -19 5 -10 18 6 11 8 11 12 0 2 -7 1 -15 -2 -18z m-1382
-4 c-3 -5 -10 -7 -15 -3 -5 3 -7 10 -3 15 3 5 10 7 15 3 5 -3 7 -10 3 -15z
m-473 -101 c85 -126 172 -214 285 -290 81 -54 91 -63 70 -66 -65 -8 -244 124
-323 238 -54 79 -116 210 -99 210 2 0 32 -42 67 -92z m1659 72 c0 -5 -4 -10
-10 -10 -5 0 -10 5 -10 10 0 6 5 10 10 10 6 0 10 -4 10 -10z m-1440 -26 c0 -8
-5 -12 -10 -9 -6 4 -8 11 -5 16 9 14 15 11 15 -7z m1640 -24 c0 -5 -4 -10 -10
-10 -5 0 -10 5 -10 10 0 6 5 10 10 10 6 0 10 -4 10 -10z m-425 -20 c3 -5 2
-10 -4 -10 -5 0 -13 5 -16 10 -3 6 -2 10 4 10 5 0 13 -4 16 -10z m-1035 -40
c0 -5 -4 -10 -10 -10 -5 0 -10 5 -10 10 0 6 5 10 10 10 6 0 10 -4 10 -10z m30
0 c0 -5 -4 -10 -10 -10 -5 0 -10 5 -10 10 0 6 5 10 10 10 6 0 10 -4 10 -10z
m670 0 c0 -5 -7 -10 -15 -10 -8 0 -15 5 -15 10 0 6 7 10 15 10 8 0 15 -4 15
-10z m260 -64 c0 -3 -4 -8 -10 -11 -5 -3 -10 -1 -10 4 0 6 5 11 10 11 6 0 10
-2 10 -4z m343 -56 c3 -11 1 -20 -4 -20 -5 0 -9 9 -9 20 0 11 2 20 4 20 2 0 6
-9 9 -20z m-93 -30 c0 -5 -2 -10 -4 -10 -3 0 -8 5 -11 10 -3 6 -1 10 4 10 6 0
11 -4 11 -10z m-1110 -30 c0 -5 -4 -10 -10 -10 -5 0 -10 5 -10 10 0 6 5 10 10
10 6 0 10 -4 10 -10z m915 -10 c3 -5 1 -10 -4 -10 -6 0 -11 5 -11 10 0 6 2 10
4 10 3 0 8 -4 11 -10z m110 -10 c3 -5 1 -10 -4 -10 -6 0 -11 5 -11 10 0 6 2
10 4 10 3 0 8 -4 11 -10z m-830 -19 c3 -5 1 -12 -5 -16 -5 -3 -10 1 -10 9 0
18 6 21 15 7z m367 -16 c0 -5 -5 -11 -11 -13 -6 -2 -11 4 -11 13 0 9 5 15 11
13 6 -2 11 -8 11 -13z m548 -56 c0 -5 -7 -9 -15 -9 -9 0 -12 6 -9 15 6 15 24
11 24 -6z m-715 -29 c-3 -5 -10 -10 -16 -10 -5 0 -9 5 -9 10 0 6 7 10 16 10 8
0 12 -4 9 -10z m-235 -340 c0 -5 -7 -10 -15 -10 -8 0 -15 5 -15 10 0 6 7 10
15 10 8 0 15 -4 15 -10z m-340 -45 c0 -8 -4 -15 -10 -15 -5 0 -10 7 -10 15 0
8 5 15 10 15 6 0 10 -7 10 -15z m90 -20 c0 -8 -7 -15 -15 -15 -8 0 -15 7 -15
15 0 8 7 15 15 15 8 0 15 -7 15 -15z m70 -70 c0 -8 -4 -15 -10 -15 -5 0 -10 7
-10 15 0 8 5 15 10 15 6 0 10 -7 10 -15z"/>
<path d="M1415 1239 c-8 -12 22 -49 40 -49 18 0 48 37 40 49 -3 6 -21 11 -40
11 -19 0 -37 -5 -40 -11z"/>
<path d="M1611 2001 c-11 -7 -10 -13 4 -35 10 -14 14 -26 10 -26 -3 0 7 -11
23 -25 26 -22 52 -32 52 -21 0 12 -33 74 -49 94 -22 25 -21 25 -40 13z"/>
<path d="M1858 1639 c-16 -9 -16 -12 0 -40 9 -18 28 -42 40 -56 19 -19 27 -22
38 -12 10 8 12 15 4 23 -5 5 -10 15 -10 22 0 7 -13 25 -28 42 -21 23 -32 28
-44 21z"/>
<path d="M2485 1220 c-3 -5 -1 -10 4 -10 6 0 11 5 11 10 0 6 -2 10 -4 10 -3 0
-8 -4 -11 -10z"/>
</g>
</svg>
